<svg xmlns="http://www.w3.org/2000/svg" xmlns:xlink="http://www.w3.org/1999/xlink" id="terminal" baseProfile="full" viewBox="0 0 687 489" width="687" version="1.1">
    <defs>
        <termtosvg:template_settings xmlns:termtosvg="https://github.com/nbedos/termtosvg">
            <termtosvg:screen_geometry columns="80" rows="24"/>
            <termtosvg:animation type="css"/>
        </termtosvg:template_settings>
        <style type="text/css" id="generated-style"><![CDATA[#screen {
                font-family: 'DejaVu Sans Mono', monospace;
                font-style: normal;
                font-size: 14px;
            }

        text {
            dominant-baseline: text-before-edge;
            white-space: pre;
        }
    
            :root {
                --animation-duration: 12945ms;
            }

            @keyframes roll {
                0.000%{transform:translateY(0px)}
1.815%{transform:translateY(-442px)}
2.704%{transform:translateY(-884px)}
3.747%{transform:translateY(-1326px)}
4.681%{transform:translateY(-1768px)}
5.407%{transform:translateY(-2210px)}
5.956%{transform:translateY(-2652px)}
8.845%{transform:translateY(-3094px)}
9.579%{transform:translateY(-3536px)}
10.583%{transform:translateY(-3978px)}
11.896%{transform:translateY(-4420px)}
12.476%{transform:translateY(-4862px)}
13.557%{transform:translateY(-5304px)}
13.611%{transform:translateY(-5746px)}
13.627%{transform:translateY(-6188px)}
16.261%{transform:translateY(-6630px)}
17.188%{transform:translateY(-7072px)}
17.999%{transform:translateY(-7514px)}
18.818%{transform:translateY(-7956px)}
19.544%{transform:translateY(-8398px)}
20.124%{transform:translateY(-8840px)}
21.475%{transform:translateY(-9282px)}
22.248%{transform:translateY(-9724px)}
23.484%{transform:translateY(-10166px)}
29.973%{transform:translateY(-10608px)}
30.823%{transform:translateY(-11050px)}
31.595%{transform:translateY(-11492px)}
32.754%{transform:translateY(-11934px)}
33.797%{transform:translateY(-12376px)}
34.500%{transform:translateY(-12818px)}
35.535%{transform:translateY(-13260px)}
36.107%{transform:translateY(-13702px)}
39.050%{transform:translateY(-14144px)}
40.255%{transform:translateY(-14586px)}
41.058%{transform:translateY(-15028px)}
42.101%{transform:translateY(-15470px)}
42.990%{transform:translateY(-15912px)}
43.044%{transform:translateY(-16354px)}
43.082%{transform:translateY(-16796px)}
47.895%{transform:translateY(-17238px)}
48.745%{transform:translateY(-17680px)}
49.950%{transform:translateY(-18122px)}
50.946%{transform:translateY(-18564px)}
51.842%{transform:translateY(-19006px)}
52.298%{transform:translateY(-19448px)}
61.839%{transform:translateY(-19890px)}
62.773%{transform:translateY(-20332px)}
64.465%{transform:translateY(-20774px)}
64.565%{transform:translateY(-21216px)}
70.151%{transform:translateY(-21658px)}
70.776%{transform:translateY(-22100px)}
71.649%{transform:translateY(-22542px)}
72.538%{transform:translateY(-22984px)}
73.310%{transform:translateY(-23426px)}
73.812%{transform:translateY(-23868px)}
75.558%{transform:translateY(-24310px)}
76.748%{transform:translateY(-24752px)}
77.404%{transform:translateY(-25194px)}
80.031%{transform:translateY(-25636px)}
81.074%{transform:translateY(-26078px)}
81.166%{transform:translateY(-26520px)}
92.275%{transform:translateY(-26962px)}
100.000%{transform:translateY(-26962px)}
            }

            #screen_view {
                animation-duration: 12945ms;
                animation-iteration-count:infinite;
                animation-name:roll;
                animation-timing-function: steps(1,end);
                animation-fill-mode: forwards;
            }
        ]]></style>
        <style type="text/css" id="user-style">
            /* The colors defined below are the default 16 colors used for rendering text of the terminal. Adjust
               them as needed.
               gjm8 color theme (source: https://terminal.sexy/) */
            .foreground {fill: #f8f8f2}
            .background {fill: #272822}
            .color0 {fill: #272822}
            .color1 {fill: #f92672}
            .color2 {fill: #a6e22e}
            .color3 {fill: #f4bf75}
            .color4 {fill: #66d9ef}
            .color5 {fill: #ae81ff}
            .color6 {fill: #a1efe4}
            .color7 {fill: #f8f8f2}
            .color8 {fill: #75715e}
            .color9 {fill: #fd971f}
            .color10 {fill: #383830}
            .color11 {fill: #49483e}
            .color12 {fill: #a59f85}
            .color13 {fill: #f5f4f1}
            .color14 {fill: #cc6633}
            .color15 {fill: #f9f8f5}
        </style>
    </defs>
    <rect id="terminalui" class="background" width="100%" height="100%" ry="4.5826941"/>
    <circle cx="24" cy="23" r="7" class="color1"/>
    <circle cx="44" cy="23" r="7" class="color3"/>
    <circle cx="64" cy="23" r="7" class="color2"/>
    <svg id="screen" width="640" height="408" x="23" y="50" viewBox="0 0 640 408" preserveAspectRatio="xMidYMin slice"><rect class="background" height="100%" width="100%" x="0" y="0"/><defs><g id="g1"><text x="0" textLength="272" class="foreground">[zajan@fabric-dev01 /home/zajan]$ </text><text x="272" textLength="8" class="background"> </text></g><g id="g2"><text x="0" textLength="280" class="foreground">[zajan@fabric-dev01 /home/zajan]$ e</text><text x="280" textLength="8" class="background"> </text></g><g id="g3"><text x="0" textLength="288" class="foreground">[zajan@fabric-dev01 /home/zajan]$ em</text><text x="288" textLength="8" class="background"> </text></g><g id="g4"><text x="0" textLength="296" class="foreground">[zajan@fabric-dev01 /home/zajan]$ emo</text><text x="296" textLength="8" class="background"> </text></g><g id="g5"><text x="0" textLength="304" class="foreground">[zajan@fabric-dev01 /home/zajan]$ emoj</text><text x="304" textLength="8" class="background"> </text></g><g id="g6"><text x="0" textLength="312" class="foreground">[zajan@fabric-dev01 /home/zajan]$ emoji</text><text x="312" textLength="8" class="background"> </text></g><g id="g7"><text x="0" textLength="320" class="foreground">[zajan@fabric-dev01 /home/zajan]$ emoji </text><text x="320" textLength="8" class="background"> </text></g><g id="g8"><text x="0" textLength="328" class="foreground">[zajan@fabric-dev01 /home/zajan]$ emoji a</text><text x="328" textLength="8" class="background"> </text></g><g id="g9"><text x="0" textLength="336" class="foreground">[zajan@fabric-dev01 /home/zajan]$ emoji ap</text><text x="336" textLength="8" class="background"> </text></g><g id="g10"><text x="0" textLength="344" class="foreground">[zajan@fabric-dev01 /home/zajan]$ emoji app</text><text x="344" textLength="8" class="background"> </text></g><g id="g11"><text x="0" textLength="352" class="foreground">[zajan@fabric-dev01 /home/zajan]$ emoji appl</text><text x="352" textLength="8" class="background"> </text></g><g id="g12"><text x="0" textLength="360" class="foreground">[zajan@fabric-dev01 /home/zajan]$ emoji apple</text><text x="360" textLength="8" class="background"> </text></g><g id="g13"><text x="0" textLength="360" class="foreground">[zajan@fabric-dev01 /home/zajan]$ emoji apple</text></g><g id="g14"><text x="0" textLength="8" class="background"> </text></g><g id="g15"><text x="0" textLength="328" class="foreground">=========================================</text></g><g id="g16"><text x="0" textLength="280" class="foreground"># Results for 'apple' ( 2 of 3334 )</text></g><g id="g17"><text x="0" textLength="184" class="foreground">&gt;       &#127822;      :apple:</text></g><g id="g18"><text x="0" textLength="232" class="foreground">&gt;       &#127823;      :green_apple:</text></g><g id="g19"><text x="0" textLength="368" class="foreground">[zajan@fabric-dev01 /home/zajan]$ emoji apple </text><text x="368" textLength="8" class="background"> </text></g><g id="g20"><text x="0" textLength="376" class="foreground">[zajan@fabric-dev01 /home/zajan]$ emoji apple k</text><text x="376" textLength="8" class="background"> </text></g><g id="g21"><text x="0" textLength="384" class="foreground">[zajan@fabric-dev01 /home/zajan]$ emoji apple ki</text><text x="384" textLength="8" class="background"> </text></g><g id="g22"><text x="0" textLength="392" class="foreground">[zajan@fabric-dev01 /home/zajan]$ emoji apple kiw</text><text x="392" textLength="8" class="background"> </text></g><g id="g23"><text x="0" textLength="400" class="foreground">[zajan@fabric-dev01 /home/zajan]$ emoji apple kiwi</text><text x="400" textLength="8" class="background"> </text></g><g id="g24"><text x="0" textLength="408" class="foreground">[zajan@fabric-dev01 /home/zajan]$ emoji apple kiwi </text><text x="408" textLength="8" class="background"> </text></g><g id="g25"><text x="0" textLength="416" class="foreground">[zajan@fabric-dev01 /home/zajan]$ emoji apple kiwi r</text><text x="416" textLength="8" class="background"> </text></g><g id="g26"><text x="0" textLength="424" class="foreground">[zajan@fabric-dev01 /home/zajan]$ emoji apple kiwi ri</text><text x="424" textLength="8" class="background"> </text></g><g id="g27"><text x="0" textLength="432" class="foreground">[zajan@fabric-dev01 /home/zajan]$ emoji apple kiwi ric</text><text x="432" textLength="8" class="background"> </text></g><g id="g28"><text x="0" textLength="440" class="foreground">[zajan@fabric-dev01 /home/zajan]$ emoji apple kiwi rice</text><text x="440" textLength="8" class="background"> </text></g><g id="g29"><text x="0" textLength="440" class="foreground">[zajan@fabric-dev01 /home/zajan]$ emoji apple kiwi rice</text></g><g id="g30"><text x="0" textLength="272" class="foreground"># Results for 'kiwi' ( 1 of 3334 )</text></g><g id="g31"><text x="0" textLength="176" class="foreground">&gt;       &#129373;      :kiwi:</text></g><g id="g32"><text x="0" textLength="272" class="foreground"># Results for 'rice' ( 5 of 3334 )</text></g><g id="g33"><text x="0" textLength="216" class="foreground">&gt;       &#127833;      :rice_ball:</text></g><g id="g34"><text x="0" textLength="240" class="foreground">&gt;       &#127832;      :rice_cracker:</text></g><g id="g35"><text x="0" textLength="184" class="foreground">&gt;       &#127835;      :curry:</text></g><g id="g36"><text x="0" textLength="176" class="foreground">&gt;       &#127834;      :rice:</text></g><g id="g37"><text x="0" textLength="232" class="foreground">&gt;       &#127806;      :ear_of_rice:</text></g><g id="g38"><text x="0" textLength="328" class="foreground">[zajan@fabric-dev01 /home/zajan]$ emoji -</text><text x="328" textLength="8" class="background"> </text></g><g id="g39"><text x="0" textLength="336" class="foreground">[zajan@fabric-dev01 /home/zajan]$ emoji -r</text><text x="336" textLength="8" class="background"> </text></g><g id="g40"><text x="0" textLength="336" class="foreground">[zajan@fabric-dev01 /home/zajan]$ emoji -r</text></g><g id="g41"><text x="0" textLength="296" class="foreground"># Results for randomly ( 10 of 3334 )</text></g><g id="g42"><text x="0" textLength="240" class="foreground">&gt;       &#127786;      :cloud_tornado:</text></g><g id="g43"><text x="0" textLength="176" class="foreground">&gt;       &#128759;      :sled:</text></g><g id="g44"><text x="0" textLength="216" class="foreground">&gt;       &#128134;&#9794;   :massage_man:</text></g><g id="g45"><text x="0" textLength="248" class="foreground">&gt;       &#128115;&#9794;   :man_with_turban:</text></g><g id="g46"><text x="0" textLength="240" class="foreground">&gt;       &#129337;&#9792;   :woman_juggling:</text></g><g id="g47"><text x="0" textLength="280" class="foreground">&gt;       &#128589;&#127997;&#9794;  :man_frowning_tone3:</text></g><g id="g48"><text x="0" textLength="176" class="foreground">&gt;       &#127477;&#127484;     :palau:</text></g><g id="g49"><text x="0" textLength="184" class="foreground">&gt;       &#127472;&#127484;     :kuwait:</text></g><g id="g50"><text x="0" textLength="248" class="foreground">&gt;       &#129344;      :wilted_flower:</text></g><g id="g51"><text x="0" textLength="256" class="foreground">&gt;       &#129305;&#127999;     :call_me_tone5:</text></g><g id="g52"><text x="0" textLength="344" class="foreground">[zajan@fabric-dev01 /home/zajan]$ emoji -r </text><text x="344" textLength="8" class="background"> </text></g><g id="g53"><text x="0" textLength="352" class="foreground">[zajan@fabric-dev01 /home/zajan]$ emoji -r 5</text><text x="352" textLength="8" class="background"> </text></g><g id="g54"><text x="0" textLength="352" class="foreground">[zajan@fabric-dev01 /home/zajan]$ emoji -r 5</text></g><g id="g55"><text x="0" textLength="288" class="foreground"># Results for randomly ( 5 of 3334 )</text></g><g id="g56"><text x="0" textLength="376" class="foreground">&gt;       &#128135;&#127997;     :person_getting_haircut_tone3:</text></g><g id="g57"><text x="0" textLength="240" class="foreground">&gt;       &#128104;&#128104;&#128103;&#128103; :family_mmgg:</text></g><g id="g58"><text x="0" textLength="192" class="foreground">&gt;       &#128703;      :shower:</text></g><g id="g59"><text x="0" textLength="208" class="foreground">&gt;       &#127846;      :icecream:</text></g><g id="g60"><text x="0" textLength="200" class="foreground">&gt;       &#128129;&#9794;   :sassy_man:</text></g><g id="g61"><text x="0" textLength="304" class="foreground">[zajan@fabric-dev01 /home/zajan]$ exit</text></g></defs><g id="screen_view"><g><rect x="272" y="0" width="8" height="17" class="foreground"/><use xlink:href="#g1" y="0"/></g><g><rect x="280" y="442" width="8" height="17" class="foreground"/><use xlink:href="#g2" y="442"/></g><g><rect x="288" y="884" width="8" height="17" class="foreground"/><use xlink:href="#g3" y="884"/></g><g><rect x="296" y="1326" width="8" height="17" class="foreground"/><use xlink:href="#g4" y="1326"/></g><g><rect x="304" y="1768" width="8" height="17" class="foreground"/><use xlink:href="#g5" y="1768"/></g><g><rect x="312" y="2210" width="8" height="17" class="foreground"/><use xlink:href="#g6" y="2210"/></g><g><rect x="320" y="2652" width="8" height="17" class="foreground"/><use xlink:href="#g7" y="2652"/></g><g><rect x="328" y="3094" width="8" height="17" class="foreground"/><use xlink:href="#g8" y="3094"/></g><g><rect x="336" y="3536" width="8" height="17" class="foreground"/><use xlink:href="#g9" y="3536"/></g><g><rect x="344" y="3978" width="8" height="17" class="foreground"/><use xlink:href="#g10" y="3978"/></g><g><rect x="352" y="4420" width="8" height="17" class="foreground"/><use xlink:href="#g11" y="4420"/></g><g><rect x="360" y="4862" width="8" height="17" class="foreground"/><use xlink:href="#g12" y="4862"/></g><g><use xlink:href="#g13" y="5304"/><rect x="0" y="5321" width="8" height="17" class="foreground"/><use xlink:href="#g14" y="5321"/></g><g><use xlink:href="#g13" y="5746"/><use xlink:href="#g15" y="5763"/><use xlink:href="#g16" y="5780"/><use xlink:href="#g15" y="5797"/><rect x="0" y="5814" width="8" height="17" class="foreground"/><use xlink:href="#g14" y="5814"/></g><g><use xlink:href="#g13" y="6188"/><use xlink:href="#g15" y="6205"/><use xlink:href="#g16" y="6222"/><use xlink:href="#g15" y="6239"/><use xlink:href="#g17" y="6256"/><use xlink:href="#g18" y="6273"/><rect x="272" y="6290" width="8" height="17" class="foreground"/><use xlink:href="#g1" y="6290"/></g><g><use xlink:href="#g13" y="6630"/><use xlink:href="#g15" y="6647"/><use xlink:href="#g16" y="6664"/><use xlink:href="#g15" y="6681"/><use xlink:href="#g17" y="6698"/><use xlink:href="#g18" y="6715"/><rect x="280" y="6732" width="8" height="17" class="foreground"/><use xlink:href="#g2" y="6732"/></g><g><use xlink:href="#g13" y="7072"/><use xlink:href="#g15" y="7089"/><use xlink:href="#g16" y="7106"/><use xlink:href="#g15" y="7123"/><use xlink:href="#g17" y="7140"/><use xlink:href="#g18" y="7157"/><rect x="288" y="7174" width="8" height="17" class="foreground"/><use xlink:href="#g3" y="7174"/></g><g><use xlink:href="#g13" y="7514"/><use xlink:href="#g15" y="7531"/><use xlink:href="#g16" y="7548"/><use xlink:href="#g15" y="7565"/><use xlink:href="#g17" y="7582"/><use xlink:href="#g18" y="7599"/><rect x="296" y="7616" width="8" height="17" class="foreground"/><use xlink:href="#g4" y="7616"/></g><g><use xlink:href="#g13" y="7956"/><use xlink:href="#g15" y="7973"/><use xlink:href="#g16" y="7990"/><use xlink:href="#g15" y="8007"/><use xlink:href="#g17" y="8024"/><use xlink:href="#g18" y="8041"/><rect x="304" y="8058" width="8" height="17" class="foreground"/><use xlink:href="#g5" y="8058"/></g><g><use xlink:href="#g13" y="8398"/><use xlink:href="#g15" y="8415"/><use xlink:href="#g16" y="8432"/><use xlink:href="#g15" y="8449"/><use xlink:href="#g17" y="8466"/><use xlink:href="#g18" y="8483"/><rect x="312" y="8500" width="8" height="17" class="foreground"/><use xlink:href="#g6" y="8500"/></g><g><use xlink:href="#g13" y="8840"/><use xlink:href="#g15" y="8857"/><use xlink:href="#g16" y="8874"/><use xlink:href="#g15" y="8891"/><use xlink:href="#g17" y="8908"/><use xlink:href="#g18" y="8925"/><rect x="320" y="8942" width="8" height="17" class="foreground"/><use xlink:href="#g7" y="8942"/></g><g><use xlink:href="#g13" y="9282"/><use xlink:href="#g15" y="9299"/><use xlink:href="#g16" y="9316"/><use xlink:href="#g15" y="9333"/><use xlink:href="#g17" y="9350"/><use xlink:href="#g18" y="9367"/><rect x="328" y="9384" width="8" height="17" class="foreground"/><use xlink:href="#g8" y="9384"/></g><g><use xlink:href="#g13" y="9724"/><use xlink:href="#g15" y="9741"/><use xlink:href="#g16" y="9758"/><use xlink:href="#g15" y="9775"/><use xlink:href="#g17" y="9792"/><use xlink:href="#g18" y="9809"/><rect x="336" y="9826" width="8" height="17" class="foreground"/><use xlink:href="#g9" y="9826"/></g><g><use xlink:href="#g13" y="10166"/><use xlink:href="#g15" y="10183"/><use xlink:href="#g16" y="10200"/><use xlink:href="#g15" y="10217"/><use xlink:href="#g17" y="10234"/><use xlink:href="#g18" y="10251"/><rect x="344" y="10268" width="8" height="17" class="foreground"/><use xlink:href="#g10" y="10268"/></g><g><use xlink:href="#g13" y="10608"/><use xlink:href="#g15" y="10625"/><use xlink:href="#g16" y="10642"/><use xlink:href="#g15" y="10659"/><use xlink:href="#g17" y="10676"/><use xlink:href="#g18" y="10693"/><rect x="352" y="10710" width="8" height="17" class="foreground"/><use xlink:href="#g11" y="10710"/></g><g><use xlink:href="#g13" y="11050"/><use xlink:href="#g15" y="11067"/><use xlink:href="#g16" y="11084"/><use xlink:href="#g15" y="11101"/><use xlink:href="#g17" y="11118"/><use xlink:href="#g18" y="11135"/><rect x="360" y="11152" width="8" height="17" class="foreground"/><use xlink:href="#g12" y="11152"/></g><g><use xlink:href="#g13" y="11492"/><use xlink:href="#g15" y="11509"/><use xlink:href="#g16" y="11526"/><use xlink:href="#g15" y="11543"/><use xlink:href="#g17" y="11560"/><use xlink:href="#g18" y="11577"/><rect x="368" y="11594" width="8" height="17" class="foreground"/><use xlink:href="#g19" y="11594"/></g><g><use xlink:href="#g13" y="11934"/><use xlink:href="#g15" y="11951"/><use xlink:href="#g16" y="11968"/><use xlink:href="#g15" y="11985"/><use xlink:href="#g17" y="12002"/><use xlink:href="#g18" y="12019"/><rect x="376" y="12036" width="8" height="17" class="foreground"/><use xlink:href="#g20" y="12036"/></g><g><use xlink:href="#g13" y="12376"/><use xlink:href="#g15" y="12393"/><use xlink:href="#g16" y="12410"/><use xlink:href="#g15" y="12427"/><use xlink:href="#g17" y="12444"/><use xlink:href="#g18" y="12461"/><rect x="384" y="12478" width="8" height="17" class="foreground"/><use xlink:href="#g21" y="12478"/></g><g><use xlink:href="#g13" y="12818"/><use xlink:href="#g15" y="12835"/><use xlink:href="#g16" y="12852"/><use xlink:href="#g15" y="12869"/><use xlink:href="#g17" y="12886"/><use xlink:href="#g18" y="12903"/><rect x="392" y="12920" width="8" height="17" class="foreground"/><use xlink:href="#g22" y="12920"/></g><g><use xlink:href="#g13" y="13260"/><use xlink:href="#g15" y="13277"/><use xlink:href="#g16" y="13294"/><use xlink:href="#g15" y="13311"/><use xlink:href="#g17" y="13328"/><use xlink:href="#g18" y="13345"/><rect x="400" y="13362" width="8" height="17" class="foreground"/><use xlink:href="#g23" y="13362"/></g><g><use xlink:href="#g13" y="13702"/><use xlink:href="#g15" y="13719"/><use xlink:href="#g16" y="13736"/><use xlink:href="#g15" y="13753"/><use xlink:href="#g17" y="13770"/><use xlink:href="#g18" y="13787"/><rect x="408" y="13804" width="8" height="17" class="foreground"/><use xlink:href="#g24" y="13804"/></g><g><use xlink:href="#g13" y="14144"/><use xlink:href="#g15" y="14161"/><use xlink:href="#g16" y="14178"/><use xlink:href="#g15" y="14195"/><use xlink:href="#g17" y="14212"/><use xlink:href="#g18" y="14229"/><rect x="416" y="14246" width="8" height="17" class="foreground"/><use xlink:href="#g25" y="14246"/></g><g><use xlink:href="#g13" y="14586"/><use xlink:href="#g15" y="14603"/><use xlink:href="#g16" y="14620"/><use xlink:href="#g15" y="14637"/><use xlink:href="#g17" y="14654"/><use xlink:href="#g18" y="14671"/><rect x="424" y="14688" width="8" height="17" class="foreground"/><use xlink:href="#g26" y="14688"/></g><g><use xlink:href="#g13" y="15028"/><use xlink:href="#g15" y="15045"/><use xlink:href="#g16" y="15062"/><use xlink:href="#g15" y="15079"/><use xlink:href="#g17" y="15096"/><use xlink:href="#g18" y="15113"/><rect x="432" y="15130" width="8" height="17" class="foreground"/><use xlink:href="#g27" y="15130"/></g><g><use xlink:href="#g13" y="15470"/><use xlink:href="#g15" y="15487"/><use xlink:href="#g16" y="15504"/><use xlink:href="#g15" y="15521"/><use xlink:href="#g17" y="15538"/><use xlink:href="#g18" y="15555"/><rect x="440" y="15572" width="8" height="17" class="foreground"/><use xlink:href="#g28" y="15572"/></g><g><use xlink:href="#g13" y="15912"/><use xlink:href="#g15" y="15929"/><use xlink:href="#g16" y="15946"/><use xlink:href="#g15" y="15963"/><use xlink:href="#g17" y="15980"/><use xlink:href="#g18" y="15997"/><use xlink:href="#g29" y="16014"/><rect x="0" y="16031" width="8" height="17" class="foreground"/><use xlink:href="#g14" y="16031"/></g><g><use xlink:href="#g13" y="16354"/><use xlink:href="#g15" y="16371"/><use xlink:href="#g16" y="16388"/><use xlink:href="#g15" y="16405"/><use xlink:href="#g17" y="16422"/><use xlink:href="#g18" y="16439"/><use xlink:href="#g29" y="16456"/><use xlink:href="#g15" y="16473"/><use xlink:href="#g16" y="16490"/><use xlink:href="#g15" y="16507"/><use xlink:href="#g17" y="16524"/><use xlink:href="#g18" y="16541"/><rect x="0" y="16558" width="8" height="17" class="foreground"/><use xlink:href="#g14" y="16558"/></g><g><use xlink:href="#g15" y="16796"/><use xlink:href="#g16" y="16813"/><use xlink:href="#g15" y="16830"/><use xlink:href="#g17" y="16847"/><use xlink:href="#g18" y="16864"/><use xlink:href="#g29" y="16881"/><use xlink:href="#g15" y="16898"/><use xlink:href="#g16" y="16915"/><use xlink:href="#g15" y="16932"/><use xlink:href="#g17" y="16949"/><use xlink:href="#g18" y="16966"/><use xlink:href="#g15" y="16983"/><use xlink:href="#g30" y="17000"/><use xlink:href="#g15" y="17017"/><use xlink:href="#g31" y="17034"/><use xlink:href="#g15" y="17051"/><use xlink:href="#g32" y="17068"/><use xlink:href="#g15" y="17085"/><use xlink:href="#g33" y="17102"/><use xlink:href="#g34" y="17119"/><use xlink:href="#g35" y="17136"/><use xlink:href="#g36" y="17153"/><use xlink:href="#g37" y="17170"/><rect x="272" y="17187" width="8" height="17" class="foreground"/><use xlink:href="#g1" y="17187"/></g><g><use xlink:href="#g15" y="17238"/><use xlink:href="#g16" y="17255"/><use xlink:href="#g15" y="17272"/><use xlink:href="#g17" y="17289"/><use xlink:href="#g18" y="17306"/><use xlink:href="#g29" y="17323"/><use xlink:href="#g15" y="17340"/><use xlink:href="#g16" y="17357"/><use xlink:href="#g15" y="17374"/><use xlink:href="#g17" y="17391"/><use xlink:href="#g18" y="17408"/><use xlink:href="#g15" y="17425"/><use xlink:href="#g30" y="17442"/><use xlink:href="#g15" y="17459"/><use xlink:href="#g31" y="17476"/><use xlink:href="#g15" y="17493"/><use xlink:href="#g32" y="17510"/><use xlink:href="#g15" y="17527"/><use xlink:href="#g33" y="17544"/><use xlink:href="#g34" y="17561"/><use xlink:href="#g35" y="17578"/><use xlink:href="#g36" y="17595"/><use xlink:href="#g37" y="17612"/><rect x="280" y="17629" width="8" height="17" class="foreground"/><use xlink:href="#g2" y="17629"/></g><g><use xlink:href="#g15" y="17680"/><use xlink:href="#g16" y="17697"/><use xlink:href="#g15" y="17714"/><use xlink:href="#g17" y="17731"/><use xlink:href="#g18" y="17748"/><use xlink:href="#g29" y="17765"/><use xlink:href="#g15" y="17782"/><use xlink:href="#g16" y="17799"/><use xlink:href="#g15" y="17816"/><use xlink:href="#g17" y="17833"/><use xlink:href="#g18" y="17850"/><use xlink:href="#g15" y="17867"/><use xlink:href="#g30" y="17884"/><use xlink:href="#g15" y="17901"/><use xlink:href="#g31" y="17918"/><use xlink:href="#g15" y="17935"/><use xlink:href="#g32" y="17952"/><use xlink:href="#g15" y="17969"/><use xlink:href="#g33" y="17986"/><use xlink:href="#g34" y="18003"/><use xlink:href="#g35" y="18020"/><use xlink:href="#g36" y="18037"/><use xlink:href="#g37" y="18054"/><rect x="288" y="18071" width="8" height="17" class="foreground"/><use xlink:href="#g3" y="18071"/></g><g><use xlink:href="#g15" y="18122"/><use xlink:href="#g16" y="18139"/><use xlink:href="#g15" y="18156"/><use xlink:href="#g17" y="18173"/><use xlink:href="#g18" y="18190"/><use xlink:href="#g29" y="18207"/><use xlink:href="#g15" y="18224"/><use xlink:href="#g16" y="18241"/><use xlink:href="#g15" y="18258"/><use xlink:href="#g17" y="18275"/><use xlink:href="#g18" y="18292"/><use xlink:href="#g15" y="18309"/><use xlink:href="#g30" y="18326"/><use xlink:href="#g15" y="18343"/><use xlink:href="#g31" y="18360"/><use xlink:href="#g15" y="18377"/><use xlink:href="#g32" y="18394"/><use xlink:href="#g15" y="18411"/><use xlink:href="#g33" y="18428"/><use xlink:href="#g34" y="18445"/><use xlink:href="#g35" y="18462"/><use xlink:href="#g36" y="18479"/><use xlink:href="#g37" y="18496"/><rect x="296" y="18513" width="8" height="17" class="foreground"/><use xlink:href="#g4" y="18513"/></g><g><use xlink:href="#g15" y="18564"/><use xlink:href="#g16" y="18581"/><use xlink:href="#g15" y="18598"/><use xlink:href="#g17" y="18615"/><use xlink:href="#g18" y="18632"/><use xlink:href="#g29" y="18649"/><use xlink:href="#g15" y="18666"/><use xlink:href="#g16" y="18683"/><use xlink:href="#g15" y="18700"/><use xlink:href="#g17" y="18717"/><use xlink:href="#g18" y="18734"/><use xlink:href="#g15" y="18751"/><use xlink:href="#g30" y="18768"/><use xlink:href="#g15" y="18785"/><use xlink:href="#g31" y="18802"/><use xlink:href="#g15" y="18819"/><use xlink:href="#g32" y="18836"/><use xlink:href="#g15" y="18853"/><use xlink:href="#g33" y="18870"/><use xlink:href="#g34" y="18887"/><use xlink:href="#g35" y="18904"/><use xlink:href="#g36" y="18921"/><use xlink:href="#g37" y="18938"/><rect x="304" y="18955" width="8" height="17" class="foreground"/><use xlink:href="#g5" y="18955"/></g><g><use xlink:href="#g15" y="19006"/><use xlink:href="#g16" y="19023"/><use xlink:href="#g15" y="19040"/><use xlink:href="#g17" y="19057"/><use xlink:href="#g18" y="19074"/><use xlink:href="#g29" y="19091"/><use xlink:href="#g15" y="19108"/><use xlink:href="#g16" y="19125"/><use xlink:href="#g15" y="19142"/><use xlink:href="#g17" y="19159"/><use xlink:href="#g18" y="19176"/><use xlink:href="#g15" y="19193"/><use xlink:href="#g30" y="19210"/><use xlink:href="#g15" y="19227"/><use xlink:href="#g31" y="19244"/><use xlink:href="#g15" y="19261"/><use xlink:href="#g32" y="19278"/><use xlink:href="#g15" y="19295"/><use xlink:href="#g33" y="19312"/><use xlink:href="#g34" y="19329"/><use xlink:href="#g35" y="19346"/><use xlink:href="#g36" y="19363"/><use xlink:href="#g37" y="19380"/><rect x="312" y="19397" width="8" height="17" class="foreground"/><use xlink:href="#g6" y="19397"/></g><g><use xlink:href="#g15" y="19448"/><use xlink:href="#g16" y="19465"/><use xlink:href="#g15" y="19482"/><use xlink:href="#g17" y="19499"/><use xlink:href="#g18" y="19516"/><use xlink:href="#g29" y="19533"/><use xlink:href="#g15" y="19550"/><use xlink:href="#g16" y="19567"/><use xlink:href="#g15" y="19584"/><use xlink:href="#g17" y="19601"/><use xlink:href="#g18" y="19618"/><use xlink:href="#g15" y="19635"/><use xlink:href="#g30" y="19652"/><use xlink:href="#g15" y="19669"/><use xlink:href="#g31" y="19686"/><use xlink:href="#g15" y="19703"/><use xlink:href="#g32" y="19720"/><use xlink:href="#g15" y="19737"/><use xlink:href="#g33" y="19754"/><use xlink:href="#g34" y="19771"/><use xlink:href="#g35" y="19788"/><use xlink:href="#g36" y="19805"/><use xlink:href="#g37" y="19822"/><rect x="320" y="19839" width="8" height="17" class="foreground"/><use xlink:href="#g7" y="19839"/></g><g><use xlink:href="#g15" y="19890"/><use xlink:href="#g16" y="19907"/><use xlink:href="#g15" y="19924"/><use xlink:href="#g17" y="19941"/><use xlink:href="#g18" y="19958"/><use xlink:href="#g29" y="19975"/><use xlink:href="#g15" y="19992"/><use xlink:href="#g16" y="20009"/><use xlink:href="#g15" y="20026"/><use xlink:href="#g17" y="20043"/><use xlink:href="#g18" y="20060"/><use xlink:href="#g15" y="20077"/><use xlink:href="#g30" y="20094"/><use xlink:href="#g15" y="20111"/><use xlink:href="#g31" y="20128"/><use xlink:href="#g15" y="20145"/><use xlink:href="#g32" y="20162"/><use xlink:href="#g15" y="20179"/><use xlink:href="#g33" y="20196"/><use xlink:href="#g34" y="20213"/><use xlink:href="#g35" y="20230"/><use xlink:href="#g36" y="20247"/><use xlink:href="#g37" y="20264"/><rect x="328" y="20281" width="8" height="17" class="foreground"/><use xlink:href="#g38" y="20281"/></g><g><use xlink:href="#g15" y="20332"/><use xlink:href="#g16" y="20349"/><use xlink:href="#g15" y="20366"/><use xlink:href="#g17" y="20383"/><use xlink:href="#g18" y="20400"/><use xlink:href="#g29" y="20417"/><use xlink:href="#g15" y="20434"/><use xlink:href="#g16" y="20451"/><use xlink:href="#g15" y="20468"/><use xlink:href="#g17" y="20485"/><use xlink:href="#g18" y="20502"/><use xlink:href="#g15" y="20519"/><use xlink:href="#g30" y="20536"/><use xlink:href="#g15" y="20553"/><use xlink:href="#g31" y="20570"/><use xlink:href="#g15" y="20587"/><use xlink:href="#g32" y="20604"/><use xlink:href="#g15" y="20621"/><use xlink:href="#g33" y="20638"/><use xlink:href="#g34" y="20655"/><use xlink:href="#g35" y="20672"/><use xlink:href="#g36" y="20689"/><use xlink:href="#g37" y="20706"/><rect x="336" y="20723" width="8" height="17" class="foreground"/><use xlink:href="#g39" y="20723"/></g><g><use xlink:href="#g16" y="20774"/><use xlink:href="#g15" y="20791"/><use xlink:href="#g17" y="20808"/><use xlink:href="#g18" y="20825"/><use xlink:href="#g29" y="20842"/><use xlink:href="#g15" y="20859"/><use xlink:href="#g16" y="20876"/><use xlink:href="#g15" y="20893"/><use xlink:href="#g17" y="20910"/><use xlink:href="#g18" y="20927"/><use xlink:href="#g15" y="20944"/><use xlink:href="#g30" y="20961"/><use xlink:href="#g15" y="20978"/><use xlink:href="#g31" y="20995"/><use xlink:href="#g15" y="21012"/><use xlink:href="#g32" y="21029"/><use xlink:href="#g15" y="21046"/><use xlink:href="#g33" y="21063"/><use xlink:href="#g34" y="21080"/><use xlink:href="#g35" y="21097"/><use xlink:href="#g36" y="21114"/><use xlink:href="#g37" y="21131"/><use xlink:href="#g40" y="21148"/><rect x="0" y="21165" width="8" height="17" class="foreground"/><use xlink:href="#g14" y="21165"/></g><g><use xlink:href="#g31" y="21216"/><use xlink:href="#g15" y="21233"/><use xlink:href="#g32" y="21250"/><use xlink:href="#g15" y="21267"/><use xlink:href="#g33" y="21284"/><use xlink:href="#g34" y="21301"/><use xlink:href="#g35" y="21318"/><use xlink:href="#g36" y="21335"/><use xlink:href="#g37" y="21352"/><use xlink:href="#g40" y="21369"/><use xlink:href="#g15" y="21386"/><use xlink:href="#g41" y="21403"/><use xlink:href="#g15" y="21420"/><use xlink:href="#g42" y="21437"/><use xlink:href="#g43" y="21454"/><use xlink:href="#g44" y="21471"/><use xlink:href="#g45" y="21488"/><use xlink:href="#g46" y="21505"/><use xlink:href="#g47" y="21522"/><use xlink:href="#g48" y="21539"/><use xlink:href="#g49" y="21556"/><use xlink:href="#g50" y="21573"/><use xlink:href="#g51" y="21590"/><rect x="272" y="21607" width="8" height="17" class="foreground"/><use xlink:href="#g1" y="21607"/></g><g><use xlink:href="#g31" y="21658"/><use xlink:href="#g15" y="21675"/><use xlink:href="#g32" y="21692"/><use xlink:href="#g15" y="21709"/><use xlink:href="#g33" y="21726"/><use xlink:href="#g34" y="21743"/><use xlink:href="#g35" y="21760"/><use xlink:href="#g36" y="21777"/><use xlink:href="#g37" y="21794"/><use xlink:href="#g40" y="21811"/><use xlink:href="#g15" y="21828"/><use xlink:href="#g41" y="21845"/><use xlink:href="#g15" y="21862"/><use xlink:href="#g42" y="21879"/><use xlink:href="#g43" y="21896"/><use xlink:href="#g44" y="21913"/><use xlink:href="#g45" y="21930"/><use xlink:href="#g46" y="21947"/><use xlink:href="#g47" y="21964"/><use xlink:href="#g48" y="21981"/><use xlink:href="#g49" y="21998"/><use xlink:href="#g50" y="22015"/><use xlink:href="#g51" y="22032"/><rect x="280" y="22049" width="8" height="17" class="foreground"/><use xlink:href="#g2" y="22049"/></g><g><use xlink:href="#g31" y="22100"/><use xlink:href="#g15" y="22117"/><use xlink:href="#g32" y="22134"/><use xlink:href="#g15" y="22151"/><use xlink:href="#g33" y="22168"/><use xlink:href="#g34" y="22185"/><use xlink:href="#g35" y="22202"/><use xlink:href="#g36" y="22219"/><use xlink:href="#g37" y="22236"/><use xlink:href="#g40" y="22253"/><use xlink:href="#g15" y="22270"/><use xlink:href="#g41" y="22287"/><use xlink:href="#g15" y="22304"/><use xlink:href="#g42" y="22321"/><use xlink:href="#g43" y="22338"/><use xlink:href="#g44" y="22355"/><use xlink:href="#g45" y="22372"/><use xlink:href="#g46" y="22389"/><use xlink:href="#g47" y="22406"/><use xlink:href="#g48" y="22423"/><use xlink:href="#g49" y="22440"/><use xlink:href="#g50" y="22457"/><use xlink:href="#g51" y="22474"/><rect x="288" y="22491" width="8" height="17" class="foreground"/><use xlink:href="#g3" y="22491"/></g><g><use xlink:href="#g31" y="22542"/><use xlink:href="#g15" y="22559"/><use xlink:href="#g32" y="22576"/><use xlink:href="#g15" y="22593"/><use xlink:href="#g33" y="22610"/><use xlink:href="#g34" y="22627"/><use xlink:href="#g35" y="22644"/><use xlink:href="#g36" y="22661"/><use xlink:href="#g37" y="22678"/><use xlink:href="#g40" y="22695"/><use xlink:href="#g15" y="22712"/><use xlink:href="#g41" y="22729"/><use xlink:href="#g15" y="22746"/><use xlink:href="#g42" y="22763"/><use xlink:href="#g43" y="22780"/><use xlink:href="#g44" y="22797"/><use xlink:href="#g45" y="22814"/><use xlink:href="#g46" y="22831"/><use xlink:href="#g47" y="22848"/><use xlink:href="#g48" y="22865"/><use xlink:href="#g49" y="22882"/><use xlink:href="#g50" y="22899"/><use xlink:href="#g51" y="22916"/><rect x="296" y="22933" width="8" height="17" class="foreground"/><use xlink:href="#g4" y="22933"/></g><g><use xlink:href="#g31" y="22984"/><use xlink:href="#g15" y="23001"/><use xlink:href="#g32" y="23018"/><use xlink:href="#g15" y="23035"/><use xlink:href="#g33" y="23052"/><use xlink:href="#g34" y="23069"/><use xlink:href="#g35" y="23086"/><use xlink:href="#g36" y="23103"/><use xlink:href="#g37" y="23120"/><use xlink:href="#g40" y="23137"/><use xlink:href="#g15" y="23154"/><use xlink:href="#g41" y="23171"/><use xlink:href="#g15" y="23188"/><use xlink:href="#g42" y="23205"/><use xlink:href="#g43" y="23222"/><use xlink:href="#g44" y="23239"/><use xlink:href="#g45" y="23256"/><use xlink:href="#g46" y="23273"/><use xlink:href="#g47" y="23290"/><use xlink:href="#g48" y="23307"/><use xlink:href="#g49" y="23324"/><use xlink:href="#g50" y="23341"/><use xlink:href="#g51" y="23358"/><rect x="304" y="23375" width="8" height="17" class="foreground"/><use xlink:href="#g5" y="23375"/></g><g><use xlink:href="#g31" y="23426"/><use xlink:href="#g15" y="23443"/><use xlink:href="#g32" y="23460"/><use xlink:href="#g15" y="23477"/><use xlink:href="#g33" y="23494"/><use xlink:href="#g34" y="23511"/><use xlink:href="#g35" y="23528"/><use xlink:href="#g36" y="23545"/><use xlink:href="#g37" y="23562"/><use xlink:href="#g40" y="23579"/><use xlink:href="#g15" y="23596"/><use xlink:href="#g41" y="23613"/><use xlink:href="#g15" y="23630"/><use xlink:href="#g42" y="23647"/><use xlink:href="#g43" y="23664"/><use xlink:href="#g44" y="23681"/><use xlink:href="#g45" y="23698"/><use xlink:href="#g46" y="23715"/><use xlink:href="#g47" y="23732"/><use xlink:href="#g48" y="23749"/><use xlink:href="#g49" y="23766"/><use xlink:href="#g50" y="23783"/><use xlink:href="#g51" y="23800"/><rect x="312" y="23817" width="8" height="17" class="foreground"/><use xlink:href="#g6" y="23817"/></g><g><use xlink:href="#g31" y="23868"/><use xlink:href="#g15" y="23885"/><use xlink:href="#g32" y="23902"/><use xlink:href="#g15" y="23919"/><use xlink:href="#g33" y="23936"/><use xlink:href="#g34" y="23953"/><use xlink:href="#g35" y="23970"/><use xlink:href="#g36" y="23987"/><use xlink:href="#g37" y="24004"/><use xlink:href="#g40" y="24021"/><use xlink:href="#g15" y="24038"/><use xlink:href="#g41" y="24055"/><use xlink:href="#g15" y="24072"/><use xlink:href="#g42" y="24089"/><use xlink:href="#g43" y="24106"/><use xlink:href="#g44" y="24123"/><use xlink:href="#g45" y="24140"/><use xlink:href="#g46" y="24157"/><use xlink:href="#g47" y="24174"/><use xlink:href="#g48" y="24191"/><use xlink:href="#g49" y="24208"/><use xlink:href="#g50" y="24225"/><use xlink:href="#g51" y="24242"/><rect x="320" y="24259" width="8" height="17" class="foreground"/><use xlink:href="#g7" y="24259"/></g><g><use xlink:href="#g31" y="24310"/><use xlink:href="#g15" y="24327"/><use xlink:href="#g32" y="24344"/><use xlink:href="#g15" y="24361"/><use xlink:href="#g33" y="24378"/><use xlink:href="#g34" y="24395"/><use xlink:href="#g35" y="24412"/><use xlink:href="#g36" y="24429"/><use xlink:href="#g37" y="24446"/><use xlink:href="#g40" y="24463"/><use xlink:href="#g15" y="24480"/><use xlink:href="#g41" y="24497"/><use xlink:href="#g15" y="24514"/><use xlink:href="#g42" y="24531"/><use xlink:href="#g43" y="24548"/><use xlink:href="#g44" y="24565"/><use xlink:href="#g45" y="24582"/><use xlink:href="#g46" y="24599"/><use xlink:href="#g47" y="24616"/><use xlink:href="#g48" y="24633"/><use xlink:href="#g49" y="24650"/><use xlink:href="#g50" y="24667"/><use xlink:href="#g51" y="24684"/><rect x="328" y="24701" width="8" height="17" class="foreground"/><use xlink:href="#g38" y="24701"/></g><g><use xlink:href="#g31" y="24752"/><use xlink:href="#g15" y="24769"/><use xlink:href="#g32" y="24786"/><use xlink:href="#g15" y="24803"/><use xlink:href="#g33" y="24820"/><use xlink:href="#g34" y="24837"/><use xlink:href="#g35" y="24854"/><use xlink:href="#g36" y="24871"/><use xlink:href="#g37" y="24888"/><use xlink:href="#g40" y="24905"/><use xlink:href="#g15" y="24922"/><use xlink:href="#g41" y="24939"/><use xlink:href="#g15" y="24956"/><use xlink:href="#g42" y="24973"/><use xlink:href="#g43" y="24990"/><use xlink:href="#g44" y="25007"/><use xlink:href="#g45" y="25024"/><use xlink:href="#g46" y="25041"/><use xlink:href="#g47" y="25058"/><use xlink:href="#g48" y="25075"/><use xlink:href="#g49" y="25092"/><use xlink:href="#g50" y="25109"/><use xlink:href="#g51" y="25126"/><rect x="336" y="25143" width="8" height="17" class="foreground"/><use xlink:href="#g39" y="25143"/></g><g><use xlink:href="#g31" y="25194"/><use xlink:href="#g15" y="25211"/><use xlink:href="#g32" y="25228"/><use xlink:href="#g15" y="25245"/><use xlink:href="#g33" y="25262"/><use xlink:href="#g34" y="25279"/><use xlink:href="#g35" y="25296"/><use xlink:href="#g36" y="25313"/><use xlink:href="#g37" y="25330"/><use xlink:href="#g40" y="25347"/><use xlink:href="#g15" y="25364"/><use xlink:href="#g41" y="25381"/><use xlink:href="#g15" y="25398"/><use xlink:href="#g42" y="25415"/><use xlink:href="#g43" y="25432"/><use xlink:href="#g44" y="25449"/><use xlink:href="#g45" y="25466"/><use xlink:href="#g46" y="25483"/><use xlink:href="#g47" y="25500"/><use xlink:href="#g48" y="25517"/><use xlink:href="#g49" y="25534"/><use xlink:href="#g50" y="25551"/><use xlink:href="#g51" y="25568"/><rect x="344" y="25585" width="8" height="17" class="foreground"/><use xlink:href="#g52" y="25585"/></g><g><use xlink:href="#g31" y="25636"/><use xlink:href="#g15" y="25653"/><use xlink:href="#g32" y="25670"/><use xlink:href="#g15" y="25687"/><use xlink:href="#g33" y="25704"/><use xlink:href="#g34" y="25721"/><use xlink:href="#g35" y="25738"/><use xlink:href="#g36" y="25755"/><use xlink:href="#g37" y="25772"/><use xlink:href="#g40" y="25789"/><use xlink:href="#g15" y="25806"/><use xlink:href="#g41" y="25823"/><use xlink:href="#g15" y="25840"/><use xlink:href="#g42" y="25857"/><use xlink:href="#g43" y="25874"/><use xlink:href="#g44" y="25891"/><use xlink:href="#g45" y="25908"/><use xlink:href="#g46" y="25925"/><use xlink:href="#g47" y="25942"/><use xlink:href="#g48" y="25959"/><use xlink:href="#g49" y="25976"/><use xlink:href="#g50" y="25993"/><use xlink:href="#g51" y="26010"/><rect x="352" y="26027" width="8" height="17" class="foreground"/><use xlink:href="#g53" y="26027"/></g><g><use xlink:href="#g15" y="26078"/><use xlink:href="#g32" y="26095"/><use xlink:href="#g15" y="26112"/><use xlink:href="#g33" y="26129"/><use xlink:href="#g34" y="26146"/><use xlink:href="#g35" y="26163"/><use xlink:href="#g36" y="26180"/><use xlink:href="#g37" y="26197"/><use xlink:href="#g40" y="26214"/><use xlink:href="#g15" y="26231"/><use xlink:href="#g41" y="26248"/><use xlink:href="#g15" y="26265"/><use xlink:href="#g42" y="26282"/><use xlink:href="#g43" y="26299"/><use xlink:href="#g44" y="26316"/><use xlink:href="#g45" y="26333"/><use xlink:href="#g46" y="26350"/><use xlink:href="#g47" y="26367"/><use xlink:href="#g48" y="26384"/><use xlink:href="#g49" y="26401"/><use xlink:href="#g50" y="26418"/><use xlink:href="#g51" y="26435"/><use xlink:href="#g54" y="26452"/><rect x="0" y="26469" width="8" height="17" class="foreground"/><use xlink:href="#g14" y="26469"/></g><g><use xlink:href="#g40" y="26520"/><use xlink:href="#g15" y="26537"/><use xlink:href="#g41" y="26554"/><use xlink:href="#g15" y="26571"/><use xlink:href="#g42" y="26588"/><use xlink:href="#g43" y="26605"/><use xlink:href="#g44" y="26622"/><use xlink:href="#g45" y="26639"/><use xlink:href="#g46" y="26656"/><use xlink:href="#g47" y="26673"/><use xlink:href="#g48" y="26690"/><use xlink:href="#g49" y="26707"/><use xlink:href="#g50" y="26724"/><use xlink:href="#g51" y="26741"/><use xlink:href="#g54" y="26758"/><use xlink:href="#g15" y="26775"/><use xlink:href="#g55" y="26792"/><use xlink:href="#g15" y="26809"/><use xlink:href="#g56" y="26826"/><use xlink:href="#g57" y="26843"/><use xlink:href="#g58" y="26860"/><use xlink:href="#g59" y="26877"/><use xlink:href="#g60" y="26894"/><rect x="272" y="26911" width="8" height="17" class="foreground"/><use xlink:href="#g1" y="26911"/></g><g><use xlink:href="#g15" y="26962"/><use xlink:href="#g41" y="26979"/><use xlink:href="#g15" y="26996"/><use xlink:href="#g42" y="27013"/><use xlink:href="#g43" y="27030"/><use xlink:href="#g44" y="27047"/><use xlink:href="#g45" y="27064"/><use xlink:href="#g46" y="27081"/><use xlink:href="#g47" y="27098"/><use xlink:href="#g48" y="27115"/><use xlink:href="#g49" y="27132"/><use xlink:href="#g50" y="27149"/><use xlink:href="#g51" y="27166"/><use xlink:href="#g54" y="27183"/><use xlink:href="#g15" y="27200"/><use xlink:href="#g55" y="27217"/><use xlink:href="#g15" y="27234"/><use xlink:href="#g56" y="27251"/><use xlink:href="#g57" y="27268"/><use xlink:href="#g58" y="27285"/><use xlink:href="#g59" y="27302"/><use xlink:href="#g60" y="27319"/><use xlink:href="#g61" y="27336"/><rect x="0" y="27353" width="8" height="17" class="foreground"/><use xlink:href="#g14" y="27353"/></g></g></svg>
</svg>